<svg width="66" height="65" viewBox="0 0 66 65" fill="none" xmlns="http://www.w3.org/2000/svg">
<path d="M28.0669 0.135483C19.7669 1.24799 11.9669 5.77298 6.79192 12.473C3.41692 16.848 1.27942 21.8105 0.304416 27.573C-0.0705839 29.7855 -0.108084 34.423 0.241916 36.698C1.59192 45.723 5.91692 53.048 13.0919 58.448C17.9044 62.0855 23.7294 64.298 29.8169 64.8355C33.2419 65.1355 37.6544 64.748 40.7544 63.873C41.3794 63.698 42.1794 63.473 42.5544 63.373C45.0669 62.673 49.1294 60.5855 51.8794 58.598C54.6294 56.598 57.4794 53.6105 59.7044 50.3855C61.2919 48.0855 62.9294 44.648 63.7919 41.7605C64.7919 38.3855 65.0919 36.323 65.0919 32.448C65.0919 29.148 64.9419 27.773 64.3544 25.2605C63.3669 21.048 61.8544 17.5605 59.5294 14.073C57.4044 10.898 54.4294 7.89798 51.1919 5.67299C47.4544 3.09798 43.3669 1.34798 39.2544 0.522987C38.7044 0.422981 37.9794 0.272987 37.6294 0.197983C36.6044 -0.0270157 29.6169 -0.0770187 28.0669 0.135483ZM32.6044 0.722984C32.6419 0.885483 32.7169 1.87299 32.7669 2.91048L32.8544 4.82299L33.3044 4.83548C33.7544 4.83548 36.1544 5.03548 36.6169 5.09798C36.8044 5.12299 36.9044 5.02298 37.0169 4.63549C37.1044 4.36049 37.1794 3.92299 37.1794 3.66048C37.1919 3.28548 37.1419 3.19799 36.9544 3.19799C36.6544 3.19799 36.5419 3.36049 36.4419 3.94799L36.3669 4.38549L35.0044 4.36049C34.0794 4.34798 33.5919 4.28548 33.4794 4.17299C33.3544 4.03548 33.3419 3.68549 33.4419 2.33548C33.5169 1.41048 33.6044 0.610481 33.6419 0.560486C33.7294 0.397987 34.5294 0.422981 36.3169 0.635483C38.3169 0.872986 40.5794 1.31049 40.7919 1.51049C40.9169 1.62299 40.8794 1.92299 40.5669 3.08548C39.9544 5.38549 39.8919 5.69799 40.0169 5.81049C40.1669 5.94799 43.4794 7.07299 43.7419 7.07299C43.8669 7.07299 44.0669 6.79799 44.2544 6.37299C44.6294 5.52298 44.6294 5.49799 44.3169 5.32299C44.1044 5.21048 44.0419 5.26049 43.7544 5.82299C43.3919 6.54799 43.5544 6.53548 41.7919 5.92299C40.8794 5.59798 40.6919 5.49799 40.6919 5.27298C40.6919 5.13549 40.9294 4.31049 41.2294 3.44799C41.6669 2.14798 41.8044 1.87299 42.0169 1.84798C42.5294 1.77298 48.2419 4.29799 48.4794 4.69799C48.5669 4.83548 48.3294 5.36049 47.6419 6.58548C47.1169 7.51049 46.6919 8.36049 46.6919 8.47298C46.6919 8.58548 46.8919 8.78548 47.1294 8.93549C47.3794 9.07299 48.1044 9.58548 48.7544 10.073C49.4044 10.548 49.9544 10.948 49.9919 10.948C50.0294 10.948 50.2919 10.6355 50.5794 10.2605C51.3419 9.26049 51.0419 8.76049 50.1919 9.63549C49.9544 9.87299 49.7169 10.073 49.6669 10.073C49.5044 10.073 47.4419 8.53548 47.4419 8.42299C47.4419 8.14798 49.0794 5.49799 49.3669 5.29799C49.6919 5.08548 54.6544 8.92299 55.0794 9.72298C55.1669 9.89798 54.9169 10.223 53.7419 11.4355L52.2919 12.948L52.6794 13.4105C52.9044 13.673 53.4794 14.373 53.9544 14.973C54.4419 15.5855 54.9044 16.073 54.9919 16.073C55.2919 16.073 56.3169 15.198 56.3169 14.948C56.3169 14.648 55.9169 14.6105 55.7044 14.873C55.6169 14.973 55.4044 15.0855 55.2169 15.1355C54.9169 15.2105 54.7919 15.123 54.0419 14.298C53.5794 13.798 53.1919 13.298 53.1919 13.1855C53.1919 13.073 53.7919 12.398 54.5169 11.6855L55.8544 10.398L56.4794 11.073C57.5919 12.273 60.3169 16.098 60.3169 16.448C60.3169 16.548 59.2044 17.2105 57.7794 17.948C57.4544 18.123 57.0419 18.373 56.8669 18.5105L56.5544 18.7605L57.2919 20.2605C57.7044 21.0855 58.0669 21.8855 58.1169 22.0355C58.2544 22.4605 58.6169 22.498 59.3794 22.148C59.8919 21.923 60.0669 21.773 60.0669 21.5855C60.0669 21.2855 59.6544 21.2355 59.1419 21.4605C58.8919 21.5855 58.7794 21.573 58.6169 21.4355C58.3044 21.1855 57.4044 19.223 57.4919 18.998C57.5794 18.7605 60.6419 17.2855 60.8169 17.3855C61.0544 17.5355 61.8294 19.298 62.6794 21.6355C63.3794 23.5355 63.4919 24.0105 63.2794 24.173C63.1919 24.2355 62.3419 24.523 61.3794 24.8105C60.4169 25.1105 59.5669 25.4105 59.4919 25.4855C59.3794 25.598 59.4294 26.0605 59.6544 27.2605C60.0794 29.5355 60.0294 29.448 60.9294 29.448C61.6919 29.448 62.0419 29.248 61.8919 28.8855C61.8419 28.748 61.6419 28.698 61.1419 28.698C60.3669 28.698 60.4294 28.798 60.1794 27.098C60.0794 26.398 60.0794 26.0105 60.1669 25.923C60.3544 25.7355 62.0169 25.3355 62.9544 25.248L63.7919 25.1605L63.8669 25.523C64.2794 27.5105 64.7794 32.2855 64.5919 32.473C64.5419 32.523 63.5544 32.5855 62.3919 32.598C60.3919 32.6355 60.2794 32.648 60.2419 32.8855C60.1294 33.5855 59.9419 35.673 59.9419 36.198V36.7855L60.7544 36.873C61.6544 36.9605 61.8169 36.923 61.8169 36.573C61.8169 36.4105 61.6794 36.323 61.2294 36.248L60.6294 36.1355L60.5919 35.5105C60.5669 35.1605 60.5794 34.5355 60.6294 34.098L60.7169 33.3105L62.6044 33.348L64.5044 33.3855L64.4919 34.473C64.4669 35.8105 63.8294 39.7855 63.5419 40.348C63.3919 40.6605 62.9919 40.6355 61.0669 40.1355C59.7544 39.8105 59.3419 39.748 59.2294 39.8605C59.0169 40.073 58.0419 42.923 58.0169 43.3855C58.0044 43.698 58.0794 43.7855 58.4919 43.9855C59.2044 44.323 59.6169 44.323 59.6669 43.998C59.7044 43.773 59.5919 43.6855 59.1419 43.5105C58.8294 43.3855 58.5669 43.223 58.5669 43.1355C58.5669 42.9355 59.1294 41.423 59.3919 40.923C59.5794 40.573 59.6294 40.548 60.0794 40.623C60.8544 40.748 62.8919 41.4355 63.0544 41.623C63.2294 41.823 62.8419 43.023 61.8794 45.198C61.0169 47.148 60.4044 48.248 60.1669 48.298C60.0669 48.323 59.1919 47.8855 58.2294 47.323C57.2544 46.773 56.4419 46.323 56.4044 46.323C56.3669 46.323 56.0669 46.7355 55.7419 47.223C55.4169 47.723 54.9294 48.423 54.6669 48.7855C54.4044 49.148 54.1919 49.548 54.1919 49.6855C54.1919 49.8355 54.4294 50.1105 54.7669 50.3855C55.4294 50.8855 55.4794 50.898 55.6919 50.6355C55.8294 50.473 55.7794 50.373 55.3794 50.0355C54.9919 49.698 54.9169 49.5605 54.9794 49.3105C55.0419 49.048 55.6419 48.173 56.2544 47.423C56.5169 47.098 56.8294 47.2355 59.0419 48.6605C59.3919 48.898 59.6919 49.1605 59.6919 49.2355C59.6919 49.723 55.5794 54.948 55.2044 54.948C55.0919 54.948 54.4544 54.3855 53.2294 53.173C52.5669 52.523 52.0044 52.073 51.9169 52.1105C51.8294 52.148 51.1669 52.698 50.4419 53.3105C49.7169 53.9355 49.0794 54.448 49.0169 54.448C48.8419 54.448 49.0669 55.0855 49.4544 55.6605C49.8669 56.2605 49.9169 56.273 50.2669 56.023C50.5044 55.848 50.5044 55.8355 50.2419 55.548C50.0919 55.3855 49.9044 55.123 49.8169 54.9605C49.6669 54.673 49.6919 54.623 50.0294 54.3355C50.2419 54.148 50.7169 53.7355 51.1044 53.4105C51.4919 53.073 51.8544 52.823 51.9169 52.848C52.0669 52.9105 53.8544 54.8605 54.1669 55.298L54.4419 55.673L54.0419 56.0855C52.7544 57.373 49.0919 59.948 48.5544 59.948C48.4044 59.948 47.8794 59.123 46.8544 57.273C46.3669 56.4105 46.2919 56.373 45.6419 56.6855C45.3294 56.823 45.0419 56.948 45.0044 56.948C44.9669 56.948 44.5919 57.1105 44.1669 57.3105C43.7294 57.5105 43.1669 57.7605 42.9169 57.8605L42.4544 58.0605L42.7419 58.9105C43.0294 59.748 43.2044 59.9355 43.5544 59.7105C43.7169 59.6105 43.7044 59.523 43.5294 59.073C43.4169 58.7855 43.3544 58.4855 43.3919 58.4105C43.4419 58.248 45.0169 57.423 45.5419 57.2605C45.7294 57.2105 45.9044 57.248 46.0544 57.373C46.4169 57.7105 47.6044 60.273 47.5169 60.548C47.3544 61.0355 41.4419 63.373 40.8919 63.1605C40.7919 63.123 40.5919 62.7105 40.4544 62.2355C40.3169 61.773 40.0669 60.9355 39.8919 60.3855L39.5919 59.3855L38.5669 59.4105C37.6794 59.423 35.5919 59.748 35.4544 59.898C35.4294 59.923 35.4544 60.323 35.5169 60.7855C35.6169 61.5355 35.6669 61.6355 35.9169 61.673C36.1794 61.7105 36.1919 61.673 36.1919 60.973C36.1919 60.123 35.9669 60.248 37.9794 59.923C39.1044 59.748 39.0919 59.7355 39.3294 60.7605C39.8419 62.973 39.9044 63.323 39.7669 63.4355C39.3294 63.7855 35.3044 64.348 33.5669 64.298L32.3919 64.2605L32.4169 62.5105C32.4419 61.548 32.4044 60.5855 32.3419 60.3855L32.2419 60.0105L30.4919 59.848C29.5419 59.7605 28.6294 59.723 28.4794 59.7605C28.2794 59.8105 28.1669 59.973 28.0669 60.3355C27.8669 61.0605 27.9419 61.498 28.2794 61.548C28.5044 61.5855 28.5669 61.5105 28.6294 61.1105C28.7669 60.2855 28.8044 60.2605 29.8294 60.298C30.3419 60.3105 30.9669 60.3605 31.2294 60.398L31.6919 60.473V62.1105C31.6919 64.3855 31.7169 64.323 30.7669 64.323C29.5544 64.323 25.0669 63.598 24.5419 63.3105C24.4169 63.248 24.3169 63.0605 24.3169 62.9105C24.3169 62.648 24.8919 60.373 25.1669 59.473C25.3169 59.0105 25.3794 59.048 24.0669 58.648C23.6919 58.523 22.9794 58.2605 22.4794 58.0605C21.9919 57.8605 21.5044 57.698 21.4044 57.698C21.1794 57.698 20.6669 58.8605 20.7169 59.2355C20.7419 59.3855 20.8544 59.523 20.9669 59.548C21.1169 59.573 21.2169 59.448 21.3169 59.0855C21.3919 58.8105 21.5044 58.548 21.5794 58.5105C21.7669 58.3855 24.4419 59.223 24.4419 59.398C24.4419 59.423 23.6669 62.123 23.4794 62.723C23.4419 62.848 23.3169 62.948 23.1919 62.948C22.9044 62.948 19.7294 61.7355 19.3919 61.498C19.2544 61.398 19.0544 61.323 18.9544 61.323C18.6919 61.323 16.5669 60.073 16.5669 59.923C16.5669 59.848 16.9919 59.0355 17.5044 58.1355C18.0169 57.223 18.4419 56.398 18.4419 56.2855C18.4419 56.1105 15.8294 54.1605 15.3419 53.9855C15.0294 53.8605 13.9544 55.1605 14.1294 55.4355C14.2294 55.623 14.7794 55.348 15.0044 54.9855C15.2669 54.5855 15.4669 54.623 16.2294 55.173C16.5919 55.4355 17.0419 55.748 17.2294 55.8605C17.8544 56.2605 17.8419 56.298 16.2794 58.7855C16.0044 59.223 15.7419 59.573 15.7044 59.573C15.5544 59.573 13.7919 58.3105 12.5669 57.3355C10.9669 56.073 10.0669 55.2105 10.0669 54.948C10.0669 54.823 10.6919 54.073 11.4544 53.273C12.2169 52.473 12.8169 51.773 12.7919 51.698C12.7794 51.6355 12.1669 50.898 11.4544 50.073L10.1544 48.5855L9.61692 48.973C9.31692 49.1855 8.97942 49.4605 8.87942 49.573C8.70442 49.773 8.70442 49.8105 8.87942 49.998C9.06692 50.1855 9.12942 50.173 9.64192 49.798C10.1794 49.4105 10.2044 49.4105 10.4169 49.648C11.5669 50.923 11.9419 51.4105 11.9419 51.6355C11.9419 52.073 9.66692 54.073 9.16692 54.073C8.91692 54.073 8.46692 53.5605 7.11692 51.7605C5.72942 49.923 4.94192 48.723 4.94192 48.4355C4.94192 48.223 5.24192 48.0105 7.19192 46.8605C7.76692 46.5105 8.29192 46.148 8.36692 46.048C8.44192 45.9105 8.25442 45.3855 7.67942 44.1605C7.24192 43.223 6.80442 42.4355 6.71692 42.398C6.62942 42.3605 6.26692 42.423 5.91692 42.548C5.20442 42.798 4.91692 43.098 5.15442 43.3355C5.26692 43.448 5.42942 43.4355 5.84192 43.2855C6.14192 43.1605 6.42942 43.073 6.47942 43.073C6.57942 43.073 7.10442 44.0855 7.45442 44.9605C7.69192 45.5855 7.69192 45.623 7.47942 45.8355C7.21692 46.0855 4.67942 47.448 4.46692 47.448C4.16692 47.448 3.00442 44.8105 1.92942 41.7105C1.50442 40.5105 1.45442 40.5605 4.19192 39.823C4.97942 39.6105 5.67942 39.3855 5.72942 39.3355C5.77942 39.2855 5.67942 38.5105 5.51692 37.623C5.34192 36.7355 5.17942 35.873 5.16692 35.698C5.12942 35.398 5.10442 35.3855 4.19192 35.3855C3.27942 35.3855 3.25442 35.398 3.25442 35.698C3.25442 35.998 3.29192 36.0105 3.92942 36.0105H4.61692L4.77942 36.6355C4.86692 36.973 4.97942 37.6355 5.01692 38.0855L5.10442 38.923L3.96692 39.1855C2.85442 39.448 1.31692 39.6605 1.31692 39.548C1.31692 39.523 1.20442 38.9105 1.07942 38.1855C0.841916 36.898 0.604416 34.623 0.541916 33.1355C0.516916 32.398 0.529416 32.3855 0.891916 32.3105C1.09192 32.2605 2.06692 32.223 3.06692 32.2105L4.87942 32.198L5.10442 30.123C5.22942 28.973 5.30442 28.023 5.27942 27.998C5.25442 27.973 4.84192 27.923 4.35442 27.873C3.07942 27.748 2.89192 28.223 4.10442 28.5105L4.62942 28.6355L4.60442 29.698C4.57942 30.2855 4.54192 30.948 4.49192 31.1855L4.42942 31.6105L2.59192 31.523C1.59192 31.473 0.716916 31.398 0.654416 31.3605C0.479416 31.248 0.641916 29.298 1.00442 27.0605C1.40442 24.6605 1.51692 24.2355 1.79192 24.148C1.90442 24.1105 2.87942 24.298 3.94192 24.5605C5.00442 24.8355 5.91692 25.0105 5.96692 24.973C6.11692 24.8105 7.27942 21.3355 7.20442 21.223C7.09192 21.073 5.94192 20.448 5.75442 20.448C5.52942 20.448 5.40442 20.823 5.56692 21.0105C5.64192 21.098 5.89192 21.2105 6.12942 21.248C6.50442 21.323 6.56692 21.3855 6.56692 21.6855C6.56692 21.873 6.52942 22.0605 6.49192 22.1105C6.44192 22.148 6.25442 22.623 6.07942 23.1605C5.81692 23.9105 5.67942 24.148 5.47942 24.173C5.34192 24.198 4.72942 24.0605 4.11692 23.8855C3.50442 23.698 2.76692 23.498 2.47942 23.423C2.17942 23.348 1.94192 23.2105 1.94192 23.1355C1.94192 22.823 2.82942 20.4105 3.40442 19.173C4.19192 17.4605 4.79192 16.448 5.00442 16.448C5.10442 16.448 5.91692 16.873 6.81692 17.3855C7.71692 17.898 8.52942 18.323 8.61692 18.323C8.77942 18.323 10.1794 16.398 10.7294 15.423L11.0044 14.9355L10.5669 14.5605C9.60442 13.723 8.91692 13.8355 9.74192 14.6855C10.2919 15.2605 10.2919 15.273 9.51692 16.3605C8.56692 17.698 8.64192 17.673 7.46692 16.9605C6.91692 16.6355 6.22942 16.173 5.95442 15.9605C5.50442 15.598 5.46692 15.5355 5.57942 15.2105C5.86692 14.373 9.61692 9.82299 10.0044 9.82299C10.1044 9.82299 10.8544 10.473 11.6919 11.273L13.1919 12.7355L14.0419 11.998C14.5044 11.5855 15.2044 11.0105 15.5919 10.698C15.9794 10.3855 16.3044 10.0855 16.3169 10.023C16.3169 9.81049 15.3044 8.57299 15.1169 8.57299C14.7919 8.57299 14.7919 8.92299 15.1169 9.41048C15.5044 9.97298 15.5169 10.1355 15.1919 10.3605C15.0544 10.4605 14.6919 10.7605 14.4044 11.0355C14.1169 11.3105 13.7294 11.623 13.5544 11.7355L13.2294 11.948L12.1919 10.798C11.6169 10.1605 11.0294 9.49799 10.8919 9.34798L10.6294 9.04799L11.2544 8.48549C12.8794 7.03548 16.3044 4.66048 16.6169 4.77298C16.7044 4.81049 17.2294 5.62299 17.8044 6.57299C18.3669 7.53548 18.8919 8.32299 18.9544 8.32299C19.0169 8.32299 19.5044 8.11049 20.0419 7.83548C20.5669 7.57299 21.1294 7.32299 21.2794 7.27298C21.4419 7.22298 21.8169 7.04799 22.1169 6.87299L22.6794 6.56049L22.4919 6.03548C22.1919 5.16048 22.0419 4.94799 21.7294 4.94799C21.3919 4.94799 21.3794 4.99799 21.6294 5.71048C21.7419 6.01049 21.8044 6.31049 21.7669 6.39798C21.7044 6.54799 20.6544 7.07299 19.7919 7.38549C19.3294 7.56049 19.3169 7.54799 19.0169 7.16048C18.8544 6.93549 18.4544 6.23549 18.1169 5.59798C17.6669 4.72298 17.5419 4.38549 17.6419 4.23549C17.7669 4.02298 19.3919 3.14798 20.0044 2.96048C20.2169 2.88549 20.9419 2.62299 21.6294 2.34798C22.3169 2.08548 23.1544 1.79799 23.4794 1.69799C24.0419 1.54799 24.1044 1.56049 24.3169 1.77298C24.4544 1.91048 24.7169 2.62299 24.9294 3.44799C25.4169 5.32299 25.5169 5.57299 25.7919 5.57299C26.0294 5.57299 28.0169 5.28548 29.0669 5.09798L29.6294 4.99799L29.6169 4.16048C29.6044 3.23549 29.4544 2.92299 29.1294 3.19799C29.0044 3.29799 28.9419 3.56049 28.9419 3.96048C28.9419 4.56049 28.9419 4.56049 28.4794 4.64798C28.2169 4.68549 27.6169 4.81049 27.1419 4.89798C26.6669 4.99799 26.2294 5.03548 26.1794 4.98549C26.0169 4.82299 25.4419 2.72298 25.3669 2.01049C25.2919 1.44799 25.3169 1.33548 25.5169 1.23549C26.1544 0.910484 29.2419 0.485481 31.1419 0.460487C32.4919 0.447983 32.5419 0.460487 32.6044 0.722984Z" fill="#0C0C0C"/>
<path d="M29.7545 1.46051C29.2795 1.51051 28.392 1.62301 27.792 1.71051L26.692 1.86052V2.28551C26.692 3.01051 26.942 3.81051 27.2045 3.88551C27.6295 4.02301 27.7295 3.83551 27.6545 3.07301L27.592 2.34801L27.9795 2.27301C28.1795 2.23552 28.817 2.16051 29.3795 2.12301C30.3545 2.04802 30.417 2.04802 30.567 2.31051C30.642 2.47301 30.717 3.24801 30.7295 4.17302L30.7545 5.76051L30.3795 5.79801C29.5795 5.87301 26.342 6.46051 25.767 6.63551C24.817 6.92301 24.767 6.91051 24.5295 6.09801C23.717 3.44801 23.5295 2.92302 23.342 2.86052C23.242 2.81051 22.7795 2.91051 22.3295 3.06051C21.1045 3.48552 18.942 4.46051 18.942 4.58551C18.942 4.69801 19.667 6.08551 19.8045 6.23551C19.8545 6.28551 20.0045 6.24801 20.1295 6.14801C20.3545 5.98551 20.3545 5.92301 20.2045 5.32301C20.117 4.96051 20.092 4.63551 20.142 4.57301C20.3045 4.41051 22.292 3.69801 22.567 3.69801C22.7045 3.69801 22.867 3.82301 22.9545 3.97301C23.142 4.32301 23.942 6.69801 23.942 6.92301C23.942 7.01051 23.6795 7.19801 23.3545 7.34801C22.792 7.58551 19.392 9.19801 18.917 9.46051C18.5045 9.67301 18.317 9.57301 17.8545 8.84801C16.5545 6.79801 16.142 6.19801 16.0045 6.19801C15.692 6.19801 12.492 8.56051 12.367 8.88551C12.292 9.07301 13.1295 10.2605 13.4295 10.3855C13.617 10.4605 13.942 10.2355 13.942 10.023C13.942 9.94801 13.8045 9.67301 13.6295 9.42301C13.4545 9.17301 13.317 8.91051 13.317 8.84801C13.317 8.72301 14.8045 7.59801 15.317 7.32301C15.542 7.19801 15.642 7.22301 15.8795 7.44801C16.2295 7.77301 17.692 9.96051 17.692 10.148C17.692 10.223 17.317 10.548 16.8545 10.898C15.8295 11.648 13.442 13.698 13.442 13.823C13.442 13.873 13.3545 13.9605 13.242 13.998C13.017 14.0855 12.5545 13.773 11.8045 13.0605C10.6295 11.9105 9.94195 11.323 9.79195 11.323C9.46695 11.323 6.72945 14.8355 6.87945 15.073C7.04195 15.323 8.35445 16.0855 8.51695 16.023C8.91695 15.873 8.86695 15.5355 8.40445 15.148C8.15445 14.9355 7.94195 14.673 7.94195 14.573C7.94195 14.298 9.44195 12.448 9.66695 12.448C9.89195 12.448 11.392 13.6605 12.0045 14.3355L12.4545 14.8355L12.017 15.423C10.892 16.9105 9.79195 18.4855 9.70445 18.748C9.64195 18.898 9.44195 19.198 9.25445 19.423L8.92945 19.8105L7.05445 18.8605C5.96695 18.323 5.12945 17.9605 5.06695 18.023C4.86695 18.223 3.86695 20.3605 3.56695 21.2105C3.40445 21.673 3.31695 22.1355 3.35445 22.2355C3.45445 22.498 4.84195 22.948 5.10445 22.798C5.49195 22.5855 5.34195 22.2605 4.75445 21.973C4.37945 21.798 4.19195 21.623 4.19195 21.4605C4.19195 21.1855 5.04195 19.098 5.19195 19.0105C5.42945 18.8605 8.36695 20.273 8.46695 20.598C8.50445 20.6855 8.29195 21.348 8.00445 22.073C7.71695 22.798 7.26695 24.023 7.01695 24.798C6.75445 25.573 6.46695 26.248 6.37945 26.273C6.29195 26.3105 5.32945 26.1355 4.25445 25.8855C3.17945 25.6355 2.27945 25.448 2.25445 25.473C2.17945 25.5605 1.69195 28.5855 1.61695 29.423L1.52945 30.3355L2.51695 30.298C3.42945 30.2605 3.50445 30.2355 3.54195 29.9855C3.57945 29.773 3.50445 29.6855 3.22945 29.6355C2.31695 29.4355 2.27945 29.3855 2.35445 28.5355C2.39195 28.1105 2.49195 27.4605 2.57945 27.0855L2.71695 26.4105L3.31695 26.4855C4.04195 26.573 6.09195 27.0605 6.21695 27.173C6.26695 27.223 6.22945 28.1605 6.12945 29.2605C6.02945 30.3605 5.94195 31.6605 5.94195 32.148C5.94195 32.7105 5.87945 33.0855 5.77945 33.1605C5.70445 33.223 4.70445 33.348 3.56695 33.4355C2.42945 33.523 1.50445 33.598 1.49195 33.6105C1.42945 33.7105 1.85445 37.4355 1.97945 37.798C2.12945 38.248 2.14195 38.2605 2.69195 38.2105C3.40445 38.1605 4.06695 37.8855 4.06695 37.648C4.06695 37.3605 3.80445 37.2605 3.11695 37.3105C2.47945 37.348 2.47945 37.348 2.40445 36.923C2.36695 36.698 2.29195 36.023 2.24195 35.4355L2.16695 34.3605L2.57945 34.2855C2.81695 34.2355 3.66695 34.173 4.46695 34.123L5.92945 34.0355L5.97945 34.4605C6.35445 37.048 6.46695 37.748 6.62945 38.448C6.89195 39.623 6.86695 40.023 6.54195 40.2605C6.37945 40.3605 5.60445 40.6605 4.81695 40.9105C2.81695 41.5355 2.86695 41.4605 3.37945 42.923C3.87945 44.3855 4.49195 45.7605 4.67945 45.8855C4.87945 45.998 6.24195 45.273 6.29195 45.023C6.31695 44.898 6.27945 44.7355 6.19195 44.6355C6.07945 44.498 5.99195 44.498 5.62945 44.648C4.85445 44.973 4.75445 44.9105 4.31695 43.873C4.10445 43.348 3.89195 42.7355 3.85445 42.5105C3.79195 42.123 3.80445 42.1105 4.76695 41.7355C5.31695 41.523 6.05445 41.273 6.41695 41.1855C7.22945 40.9855 7.26695 41.0105 7.87945 42.448C8.12945 43.0355 8.66695 44.148 9.07945 44.9105C9.47945 45.6855 9.81695 46.398 9.81695 46.4855C9.81695 46.573 9.16695 47.0355 8.36695 47.5105C7.57945 47.998 6.79195 48.498 6.61695 48.6355L6.30445 48.8855L6.70445 49.5105C7.27945 50.4355 8.99195 52.698 9.10445 52.698C9.27945 52.698 10.117 52.0605 10.3545 51.748C10.792 51.1605 10.3045 50.8105 9.67945 51.273C9.45445 51.4355 9.17945 51.573 9.07945 51.573C8.80445 51.5605 7.31695 49.623 7.31695 49.273C7.31695 49.123 10.092 47.198 10.317 47.198C10.367 47.198 10.692 47.573 11.017 48.0355C11.342 48.498 12.192 49.523 12.9045 50.323C13.617 51.1105 14.192 51.823 14.192 51.898C14.192 52.0355 13.142 53.2355 12.042 54.348C11.7045 54.6855 11.442 54.998 11.442 55.0605C11.442 55.223 13.3045 56.848 14.117 57.3855C14.5045 57.6355 14.8545 57.898 14.892 57.9605C15.0545 58.223 15.342 58.0355 15.7545 57.3855C16.242 56.6105 16.2795 56.423 15.992 56.1855C15.8045 56.0355 15.7295 56.0855 15.3045 56.573C14.8545 57.098 14.8045 57.123 14.542 56.9605C13.942 56.5855 12.567 55.4105 12.567 55.273C12.567 55.198 12.667 54.973 12.8045 54.7855C13.1795 54.2105 14.8295 52.448 14.9795 52.448C15.067 52.448 15.267 52.573 15.442 52.7355C16.367 53.5605 17.492 54.3855 18.642 55.073C19.3545 55.498 19.942 55.923 19.942 56.023C19.942 56.123 19.5545 56.9855 19.067 57.948C18.592 58.9105 18.192 59.773 18.192 59.8605C18.192 60.098 22.3045 61.898 22.4545 61.723C22.492 61.673 22.667 61.248 22.817 60.773C23.0545 60.0605 23.067 59.898 22.9295 59.8105C22.592 59.598 22.4295 59.698 22.1795 60.2605C22.042 60.5605 21.8795 60.848 21.8045 60.898C21.6795 60.973 19.842 60.1355 19.392 59.798C19.067 59.548 19.192 59.098 19.967 57.748C20.8295 56.2105 20.767 56.2605 21.5795 56.6105C22.467 57.0105 24.517 57.748 25.667 58.0855C26.1545 58.223 26.567 58.3855 26.567 58.4355C26.567 58.473 26.4295 59.1355 26.2545 59.8855C25.817 61.7355 25.717 62.4105 25.817 62.573C25.967 62.8105 27.2795 63.0605 28.892 63.148L30.4045 63.2355L30.4795 62.9355C30.642 62.323 30.5795 61.448 30.367 61.3605C30.017 61.223 29.7545 61.5105 29.692 62.0855L29.6295 62.6355L29.1295 62.623C28.2545 62.598 27.267 62.423 26.9795 62.248C26.817 62.148 26.692 61.948 26.692 61.7855C26.692 61.3605 27.1795 59.0855 27.317 58.823C27.4795 58.523 27.5045 58.523 29.2545 58.7605C30.0045 58.8605 31.2795 58.9855 32.0795 59.023L33.5295 59.098L33.617 60.4105C33.6545 61.148 33.692 62.048 33.692 62.4355C33.692 63.4855 33.6795 63.473 35.3295 63.323C36.117 63.248 37.117 63.123 37.567 63.0355C38.5045 62.8605 38.5795 62.7355 38.317 61.598C38.1795 60.9855 38.142 60.9355 37.842 60.973C37.517 61.0105 37.5045 61.0355 37.542 61.7105C37.5795 62.3605 37.5545 62.423 37.292 62.498C36.742 62.648 34.6045 62.7355 34.5295 62.6105C34.492 62.548 34.417 61.7105 34.367 60.748L34.2795 58.998L35.4545 58.8355C36.6295 58.673 38.5545 58.3105 39.5045 58.073C40.4045 57.8605 40.4045 57.848 40.7545 59.0355C41.6045 61.8855 41.617 61.948 41.8295 61.948C41.942 61.948 42.592 61.748 43.267 61.498C43.9545 61.248 44.717 60.9605 44.992 60.8605C45.692 60.6105 46.192 60.3355 46.192 60.198C46.192 60.0355 45.417 58.648 45.2795 58.548C45.2045 58.5105 45.067 58.498 44.967 58.5355C44.792 58.6105 44.8045 58.748 45.0045 59.773L45.092 60.1605L43.917 60.623C43.267 60.873 42.6545 61.073 42.542 61.073C42.2045 61.073 41.242 58.473 41.342 57.823C41.367 57.5855 41.542 57.4605 42.1295 57.2355C42.542 57.073 43.742 56.5105 44.792 55.9855C46.4295 55.1605 46.717 55.048 46.867 55.2105C46.9545 55.298 47.492 56.1355 48.0545 57.0355C49.0295 58.598 49.1045 58.6855 49.3545 58.548C50.0545 58.1855 52.817 55.998 52.817 55.8105C52.817 55.6105 51.867 54.323 51.717 54.323C51.6795 54.323 51.517 54.448 51.3545 54.598L51.067 54.873L51.517 55.3355C51.7795 55.6105 51.9295 55.8605 51.8795 55.948C51.7045 56.223 49.792 57.573 49.5795 57.573C49.442 57.573 49.142 57.273 48.867 56.873C47.7295 55.223 47.442 54.7605 47.467 54.623C47.492 54.548 48.1295 53.9855 48.8795 53.3855C49.642 52.7855 50.667 51.898 51.167 51.423C52.217 50.4355 52.017 50.4105 53.317 51.6605C55.1795 53.4355 55.3295 53.5105 55.7795 53.023C56.3795 52.373 58.192 49.9105 58.192 49.748C58.192 49.548 56.967 48.698 56.667 48.698C56.5545 48.698 56.4045 48.798 56.3295 48.9105C56.2295 49.098 56.3045 49.223 56.7045 49.598L57.217 50.0605L56.917 50.5355C56.517 51.198 55.6545 52.298 55.4795 52.373C55.2795 52.4605 52.7545 50.223 52.767 49.9605C52.767 49.848 53.2045 49.198 53.717 48.5105C54.242 47.823 54.942 46.8105 55.2795 46.273C55.6045 45.723 55.9795 45.223 56.092 45.148C56.267 45.0355 56.6545 45.1855 58.067 45.923C59.042 46.4105 59.9045 46.823 59.992 46.823C60.1545 46.823 61.2545 44.5105 61.7045 43.2355C61.9545 42.4855 61.9545 42.473 60.9545 42.073C60.3295 41.8355 60.267 41.823 60.0545 42.023C59.692 42.348 59.767 42.5355 60.342 42.723C61.1795 43.0105 61.192 43.1355 60.5295 44.498C60.117 45.3605 59.892 45.698 59.7295 45.698C59.4545 45.6855 57.267 44.673 56.8545 44.3605L56.5545 44.1355L57.0795 42.823C57.367 42.098 57.817 40.8605 58.067 40.073C58.517 38.673 58.542 38.6355 58.917 38.598C59.1295 38.573 60.017 38.698 60.8795 38.873C61.742 39.048 62.5545 39.198 62.6795 39.198C62.867 39.198 62.9545 38.9605 63.167 37.848C63.317 37.1105 63.467 36.073 63.517 35.548C63.617 34.423 63.6295 34.448 62.417 34.4105L61.6295 34.3855V34.7605C61.6295 35.1105 61.667 35.1355 62.1295 35.173C62.867 35.223 62.9295 35.3605 62.7545 36.798C62.5795 38.198 62.5295 38.323 62.1545 38.323C61.7545 38.323 59.067 37.623 58.917 37.473C58.842 37.398 58.8545 36.973 58.942 36.3105C59.017 35.7355 59.117 34.4105 59.167 33.3855L59.2545 31.5105L60.1295 31.4355C60.617 31.3855 61.6045 31.348 62.3545 31.3355L63.692 31.323V30.973C63.692 30.523 63.342 27.5855 63.217 26.9855C63.092 26.4105 62.8795 26.348 61.8795 26.6355C61.2295 26.823 61.1795 26.873 61.217 27.173C61.2545 27.498 61.2795 27.5105 61.9045 27.473C62.7295 27.423 62.792 27.548 62.9045 29.1355L62.9795 30.3105L62.617 30.4605C62.417 30.5355 61.5795 30.6105 60.7545 30.623L59.2545 30.6355L59.167 30.073C58.8295 27.948 58.542 26.273 58.3795 25.573C58.217 24.8355 58.217 24.748 58.392 24.6105C58.5045 24.523 59.4045 24.198 60.392 23.873C61.642 23.4605 62.192 23.223 62.192 23.0855C62.192 22.7105 60.617 18.698 60.4795 18.698C60.392 18.698 59.067 19.448 58.8545 19.598C58.742 19.6855 58.742 19.798 58.842 20.023C58.9545 20.248 59.042 20.3105 59.242 20.248C59.392 20.2105 59.5545 20.123 59.617 20.0605C59.8045 19.898 60.267 19.923 60.417 20.1105C60.617 20.348 61.317 22.148 61.317 22.423C61.317 22.6855 60.717 22.973 59.1545 23.448C57.9295 23.823 57.8795 23.798 57.392 22.6355C56.967 21.5855 56.3045 20.2105 55.7045 19.0855C55.5045 18.723 55.3545 18.3605 55.392 18.273C55.442 18.1355 56.5545 17.398 58.6045 16.148L58.942 15.9355L58.4295 15.1605C57.5795 13.8855 56.4045 12.3605 56.1545 12.198C55.967 12.0855 55.842 12.123 55.492 12.3855C55.2545 12.573 54.917 12.8605 54.742 13.0355L54.4295 13.348L54.7045 13.648L54.9795 13.9355L55.5045 13.5605C55.792 13.3605 56.1045 13.223 56.2045 13.2605C56.417 13.348 57.542 14.7605 57.742 15.1855C57.8545 15.448 57.817 15.523 57.442 15.848C56.742 16.4355 55.142 17.448 54.917 17.448C54.792 17.448 54.367 16.998 53.9295 16.4105C53.492 15.848 52.642 14.8605 52.017 14.223C51.392 13.5855 50.867 13.0105 50.842 12.948C50.817 12.8855 51.1545 12.4605 51.592 11.9855C53.467 9.98551 53.692 9.73551 53.692 9.62301C53.6795 9.42301 50.267 6.69801 50.017 6.69801C49.8545 6.69801 49.3045 7.36051 49.0295 7.89801C48.842 8.27301 48.842 8.31051 49.0545 8.49801C49.267 8.69801 49.317 8.68551 49.767 8.19801C50.0295 7.92301 50.3045 7.69801 50.392 7.69801C50.542 7.69801 52.492 9.21051 52.6295 9.44801C52.7045 9.56051 52.0295 10.398 50.7545 11.7855L50.2545 12.323L48.5045 11.073C47.542 10.373 46.4045 9.61051 45.9795 9.34801C45.542 9.09801 45.192 8.82301 45.192 8.74801C45.192 8.67301 45.642 7.81051 46.2045 6.81051C47.1045 5.19801 47.192 4.99801 47.0045 4.87301C46.717 4.66051 43.4545 3.24801 43.0295 3.14801C42.7045 3.07301 42.667 3.11052 42.4295 3.62301C42.017 4.56051 41.992 4.89801 42.3295 5.07301C42.6545 5.24801 42.8295 5.08551 43.092 4.36052C43.1795 4.13551 43.3045 3.94801 43.3795 3.94801C43.5795 3.94801 45.5545 4.78551 45.767 4.96051C45.867 5.03551 45.942 5.18551 45.942 5.27301C45.942 5.57301 44.567 8.19801 44.3795 8.27301C44.292 8.31051 43.717 8.14801 43.1045 7.91051C42.5045 7.67301 41.442 7.29801 40.7545 7.07301C39.042 6.51051 38.692 6.34801 38.692 6.09801C38.692 5.97301 38.842 5.26051 39.017 4.51051C39.592 2.04802 39.5795 2.19801 39.217 2.06051C38.617 1.83551 35.017 1.33551 34.867 1.46051C34.667 1.62301 34.5545 2.77301 34.692 3.13551C34.917 3.72301 35.442 3.47301 35.442 2.77301C35.442 2.62301 35.517 2.38551 35.617 2.26051C35.7795 2.03551 35.8295 2.03551 37.0045 2.23552C37.6795 2.34801 38.3045 2.51051 38.392 2.59801C38.517 2.72301 38.5045 2.99801 38.3045 3.94801C37.9545 5.67302 37.8045 6.19801 37.642 6.19801C37.567 6.19801 36.917 6.11051 36.192 6.01051C35.467 5.91051 34.4545 5.82301 33.942 5.82301C32.717 5.81051 31.817 5.64801 31.6795 5.43551C31.617 5.33551 31.567 4.37301 31.567 3.28551V1.32301L31.1045 1.33551C30.842 1.34801 30.242 1.39801 29.7545 1.46051ZM35.567 6.51051C40.8795 7.13551 45.417 9.11051 49.4795 12.548C51.2795 14.073 53.0795 15.9105 53.492 16.6355C53.692 16.973 53.992 17.4105 54.167 17.6105C55.0295 18.523 56.742 22.1105 57.3295 24.198C58.2545 27.448 58.5795 29.6105 58.567 32.3855C58.567 37.7855 57.067 42.7855 54.217 46.948C52.817 48.9855 50.442 51.5355 48.567 52.9855C46.1545 54.848 42.7045 56.598 39.7545 57.4355C32.717 59.423 25.3795 58.423 18.917 54.5855C16.792 53.323 13.8545 50.6605 11.942 48.2605C9.39195 45.048 7.77945 41.4105 6.91695 36.8855C6.39195 34.073 6.52945 28.3355 7.19195 26.2605C8.41695 22.373 8.80445 21.4355 10.067 19.2605C11.9795 15.923 14.767 12.9605 18.142 10.673C19.442 9.78551 22.7545 8.17301 24.367 7.63551C25.8045 7.14801 28.2545 6.61051 29.692 6.46051C31.2545 6.28551 33.917 6.31051 35.567 6.51051Z" fill="#0C0C0C"/>
<path d="M31.5669 9.6855C31.5669 10.2855 31.6294 10.3105 31.9669 9.8855C32.1419 9.6605 32.3294 9.573 32.6419 9.573H33.0669L33.0544 10.9105C33.0544 12.748 32.9544 13.248 32.5919 13.298C32.4419 13.323 32.3169 13.398 32.3169 13.4605C32.3169 13.523 32.7919 13.573 33.3794 13.573C34.0044 13.573 34.4419 13.523 34.4419 13.448C34.4419 13.373 34.3294 13.323 34.1919 13.323C34.0544 13.323 33.9294 13.248 33.9294 13.1605C33.8669 12.6105 33.9794 9.748 34.0669 9.6605C34.2294 9.473 34.9919 9.7605 35.1294 10.048C35.3294 10.498 35.5669 10.3855 35.5669 9.823V9.323H34.5294C33.9544 9.323 33.0544 9.2855 32.5294 9.248L31.5669 9.1605V9.6855Z" fill="#0C0C0C"/>
<path d="M27.1919 9.84797C25.5419 10.1605 25.4044 10.223 25.8794 10.3105C26.2794 10.398 26.3794 10.5855 26.9294 12.573C27.2669 13.7605 27.2544 13.998 26.9169 14.173C26.6294 14.298 26.6294 14.3105 26.8919 14.3105C27.1919 14.323 30.1544 13.7355 30.3169 13.6355C30.4169 13.573 30.2794 12.8605 30.1419 12.723C30.1044 12.6855 30.0169 12.8105 29.9544 12.9855C29.7919 13.4105 29.4169 13.598 28.7169 13.6105C28.1544 13.6355 28.1294 13.623 27.9919 13.198C27.9169 12.9605 27.8169 12.6105 27.7669 12.423C27.6794 12.0605 27.6294 12.0855 28.6294 11.8855C28.8294 11.8355 29.0044 11.9105 29.1794 12.098C29.5419 12.473 29.6169 12.323 29.4044 11.623C29.2294 10.998 28.9419 10.7355 28.9419 11.1855C28.9419 11.373 28.8169 11.473 28.4794 11.5605C27.7169 11.773 27.6169 11.7355 27.4669 11.2105C27.2294 10.423 27.2669 10.2355 27.7044 10.148C28.3669 10.023 28.8544 10.0605 29.0919 10.2855C29.3919 10.5605 29.4669 10.448 29.3044 9.97297C29.1419 9.49797 29.0794 9.49797 27.1919 9.84797Z" fill="#0C0C0C"/>
<path d="M37.7919 9.89798C37.9419 9.99798 38.0669 10.148 38.0669 10.223C38.0669 10.298 37.8044 11.073 37.4919 11.9605C36.9294 13.523 36.9044 13.573 36.5544 13.573C35.7794 13.573 36.2669 13.7855 37.9419 14.198C39.6669 14.6105 39.6919 14.623 39.8794 14.373C40.0919 14.098 40.1294 13.698 39.9419 13.698C39.8794 13.698 39.8169 13.748 39.8169 13.823C39.8169 14.123 39.3169 14.2105 38.6169 14.023C38.2294 13.923 37.8919 13.8105 37.8544 13.773C37.8169 13.7355 37.9169 13.3605 38.0669 12.948L38.3544 12.1855L38.8669 12.2605C39.4794 12.373 39.6919 12.523 39.6919 12.848C39.6919 13.223 39.8794 13.0105 40.1294 12.3855C40.3544 11.773 40.3044 11.498 40.0294 11.8855C39.8919 12.073 39.7544 12.098 39.2794 12.023C38.9544 11.973 38.6669 11.8855 38.6294 11.8105C38.5794 11.748 38.6419 11.4105 38.7544 11.073C38.9794 10.3855 39.1044 10.3355 39.9794 10.5855C40.3294 10.673 40.4919 10.8105 40.6169 11.1105L40.7919 11.5105L40.9294 11.1605C41.0044 10.9605 41.0669 10.7355 41.0669 10.648C41.0669 10.5605 40.4544 10.3355 39.4794 10.098C37.6669 9.63548 37.3794 9.61048 37.7919 9.89798Z" fill="#0C0C0C"/>
<path d="M21.7295 11.548C20.2795 12.2105 20.1295 12.323 20.642 12.323C20.992 12.323 21.1045 12.448 21.992 13.8855C22.942 15.4105 22.967 15.473 22.7545 15.698C22.4545 16.0355 22.6045 16.0105 23.592 15.6105C24.4045 15.273 24.692 15.0355 24.2295 15.0855C24.1045 15.098 23.942 15.098 23.867 15.0855C23.7045 15.073 22.942 13.8855 22.942 13.648C22.942 13.4855 23.617 13.198 24.017 13.198C24.1545 13.198 24.3295 13.2605 24.417 13.348C24.717 13.648 24.5795 13.148 24.2295 12.6355C23.892 12.148 23.8795 12.148 23.842 12.4605C23.817 12.6855 23.6795 12.848 23.367 12.9855C23.1295 13.1105 22.8545 13.198 22.767 13.198C22.5795 13.198 21.942 12.298 21.942 12.023C21.942 11.8355 22.7795 11.448 23.192 11.448C23.317 11.448 23.467 11.498 23.5045 11.573C23.542 11.6355 23.667 11.698 23.767 11.698C23.9295 11.698 23.917 11.6355 23.7295 11.323C23.592 11.0855 23.417 10.948 23.2545 10.9605C23.117 10.973 22.4295 11.2355 21.7295 11.548Z" fill="#0C0C0C"/>
<path d="M43.3169 11.398C43.3169 11.448 43.4044 11.5855 43.5044 11.698C43.6794 11.8855 43.5919 12.048 42.5669 13.448C41.4794 14.898 41.4044 14.973 41.0544 14.898C40.4544 14.7855 40.6419 14.998 41.5044 15.423C42.4294 15.873 42.7044 15.9355 42.4044 15.598C42.2044 15.3855 42.2294 15.323 42.6544 14.723C42.9294 14.323 43.1919 14.073 43.3419 14.073C43.5669 14.073 43.5919 14.1605 43.5669 15.1605C43.5544 15.773 43.5419 16.323 43.5544 16.398C43.5669 16.548 44.4419 16.9855 44.5419 16.898C44.5794 16.8605 44.5419 16.748 44.4544 16.648C44.3544 16.5355 44.3169 16.1105 44.3419 15.498L44.3794 14.5105L44.8919 14.548C45.2919 14.5855 45.4794 14.523 45.7919 14.2605C46.6419 13.548 46.2044 12.773 44.4419 11.873C43.2544 11.2605 43.3169 11.2855 43.3169 11.398ZM45.1419 12.748C45.4669 13.0105 45.4794 13.0605 45.3294 13.4105C45.1044 13.973 44.6919 14.148 44.0794 13.9605C43.8044 13.8855 43.5544 13.773 43.5169 13.723C43.4169 13.5605 44.3294 12.448 44.5669 12.448C44.7044 12.448 44.9544 12.5855 45.1419 12.748Z" fill="#0C0C0C"/>
<path d="M50.2295 14.4105C49.7045 14.673 49.7045 14.823 50.242 14.823C50.8045 14.823 51.3545 14.6105 51.292 14.4105C51.2045 14.1855 50.6795 14.1855 50.2295 14.4105Z" fill="#0C0C0C"/>
<path d="M30.2544 14.698C28.0044 15.0855 26.4419 15.573 24.6669 16.4605C21.2419 18.1605 18.1419 21.1105 16.2794 24.4355C15.9544 25.0105 15.6919 25.498 15.6919 25.523C15.6919 25.548 15.5544 25.873 15.3794 26.2355C14.5169 28.1355 13.9544 30.7105 13.8544 33.198C13.6044 39.573 16.6919 45.8105 21.9419 49.5355C23.3669 50.5605 25.6919 51.748 27.2294 52.248C30.8544 53.4355 35.4544 53.4355 39.1294 52.2605C40.5544 51.8105 43.1919 50.4605 44.4919 49.523C48.8419 46.3855 51.5794 41.798 52.4544 36.198C52.6794 34.723 52.5169 31.4355 52.1419 29.823C51.7169 28.0105 51.4919 27.3105 50.9294 26.0355C49.9919 23.948 48.6294 21.973 46.9044 20.223C42.6169 15.8605 36.1294 13.7105 30.2544 14.698ZM33.2419 16.4855C32.8419 16.8855 32.6794 17.1605 32.6169 17.548C32.5669 17.8355 32.4919 18.073 32.4419 18.073C32.3794 18.073 32.0169 17.6855 31.6044 17.198C31.2044 16.723 30.8044 16.323 30.7044 16.323C30.5169 16.323 30.5669 16.398 31.2044 17.1355C32.9169 19.0855 33.5794 19.9105 33.6419 20.1605C33.8044 20.773 33.6169 21.673 33.2419 22.1605L32.8919 22.623L32.8169 22.2605C32.6669 21.5355 32.0544 20.948 31.2294 20.7105C30.5669 20.523 30.3669 20.873 30.6169 21.823C30.7669 22.398 31.2169 23.073 31.4544 23.073C31.5044 23.073 31.7044 23.1355 31.8794 23.198L32.2044 23.323L31.5044 24.173C31.1169 24.648 30.7544 25.223 30.6794 25.5105C30.5044 26.1605 30.6044 27.048 30.9544 27.723C31.2669 28.348 32.5044 29.673 32.6419 29.5355C32.6919 29.4855 32.5169 29.223 32.2544 28.948C31.8294 28.5105 31.8044 28.448 32.0169 28.3855C32.6794 28.173 32.8544 28.0355 33.0669 27.5355C33.4544 26.6855 33.3794 25.323 32.9419 25.323C32.5794 25.323 31.5044 26.248 31.2544 26.773C31.0544 27.198 31.0169 27.223 30.9294 27.0105C30.5794 26.1105 31.0294 25.0605 32.4544 23.5105C33.5294 22.323 33.7169 22.048 33.9294 21.2355C34.0919 20.6355 33.8544 19.7105 33.4044 19.223L33.1419 18.948L33.6169 18.548C34.3544 17.948 34.6669 16.8605 34.3169 16.1855C34.1919 15.9605 34.2294 15.948 34.8044 15.948C35.6294 15.948 37.6169 16.348 38.8794 16.7605C41.6669 17.673 44.5919 19.648 46.7419 22.0855C48.5669 24.148 50.2544 27.698 50.7419 30.5355C51.0044 32.023 51.0044 35.448 50.7419 36.973C49.6544 43.298 44.9794 48.6855 38.8044 50.748C36.6669 51.4605 35.4669 51.6105 32.5919 51.5355C30.9794 51.498 29.8294 51.4105 29.2544 51.273C26.9919 50.7605 24.1169 49.423 22.4044 48.098C18.7544 45.298 16.4044 41.5355 15.5544 37.173C15.2544 35.6105 15.2294 32.1355 15.5044 30.5355C16.5044 24.773 20.7294 19.523 26.1919 17.2355C28.3419 16.3355 30.0544 15.973 32.2044 15.9605L33.7794 15.948L33.2419 16.4855ZM34.1669 16.873C34.2169 17.548 33.8919 18.198 33.3919 18.423C32.7419 18.723 32.5794 17.823 33.1294 16.948C33.4419 16.448 33.7794 16.173 34.0044 16.248C34.0794 16.2605 34.1419 16.548 34.1669 16.873ZM31.9044 21.3105C32.2919 21.5855 32.6044 22.2105 32.5544 22.573C32.4919 22.9605 31.9419 23.0605 31.5044 22.773C31.1294 22.523 30.7919 21.898 30.8419 21.5355C30.8794 21.298 30.9294 21.3355 31.2794 21.8355C31.4919 22.148 31.7544 22.473 31.8669 22.5605C32.1794 22.823 32.1169 22.498 31.7669 22.0355C31.6044 21.8105 31.3669 21.473 31.2419 21.273L31.0169 20.9105L31.3169 21.0105C31.4919 21.0605 31.7544 21.198 31.9044 21.3105ZM33.0669 26.2605C33.0669 27.1855 32.5669 28.073 32.0419 28.073C31.7294 28.073 31.7544 27.948 32.1919 27.348C32.5919 26.7855 32.6294 26.698 32.4544 26.698C32.3794 26.698 32.1544 26.948 31.9294 27.2605C31.6419 27.6605 31.4919 27.773 31.4294 27.673C31.3044 27.4855 31.4169 26.973 31.6544 26.6355C31.8919 26.273 32.8294 25.5605 32.9544 25.648C33.0169 25.6855 33.0669 25.9605 33.0669 26.2605Z" fill="#0C0C0C"/>
<path d="M39.2294 18.323C38.7544 18.673 38.3169 19.423 38.3169 19.898C38.3169 20.0605 38.2544 20.0355 37.9419 19.823C37.4919 19.498 37.4419 19.673 37.8794 20.098C38.6419 20.8605 38.8919 22.2605 38.4544 23.2605L38.2294 23.7605L38.0169 23.348C37.6919 22.7105 37.1544 22.448 36.1794 22.448C35.1669 22.448 34.9669 22.6105 35.1794 23.223C35.2544 23.448 35.4669 23.7855 35.6544 23.973C35.9669 24.298 36.0669 24.323 36.9169 24.323H37.8419L37.4169 24.848C37.1794 25.148 36.8544 25.6355 36.6919 25.9355C36.1294 27.0605 36.5544 28.6855 37.6044 29.323C38.0544 29.598 38.1919 29.6355 38.1919 29.448C38.1919 29.373 38.0544 29.248 37.8794 29.173C37.4544 28.9855 37.4919 28.873 37.9919 28.698C38.7669 28.448 39.3419 27.5355 39.3544 26.5355C39.3669 25.8355 39.2169 25.6855 38.6419 25.823C37.8669 25.998 37.2044 26.473 36.8419 27.1355C36.7169 27.348 36.7044 27.323 36.6919 26.8855C36.6919 26.323 36.8419 26.048 37.8544 24.698C38.7169 23.5605 38.9919 22.8105 38.9169 21.848C38.8794 21.448 38.8294 21.0605 38.8044 20.9605C38.7669 20.848 38.9044 20.7355 39.1544 20.6605C39.7919 20.473 40.2169 19.923 40.2794 19.2355C40.3294 18.648 40.1419 18.073 39.8794 17.9855C39.8044 17.9605 39.5169 18.1105 39.2294 18.323ZM39.9919 18.523C40.1794 19.0105 40.0669 19.598 39.7044 19.9605C39.5044 20.1605 39.2544 20.323 39.1419 20.323C39.0044 20.323 39.0294 20.2105 39.2669 19.7605C39.4419 19.4605 39.5419 19.1355 39.5044 19.0605C39.4544 18.9855 39.3169 19.1355 39.1919 19.423C38.8794 20.1105 38.6919 20.198 38.6919 19.6355C38.6919 18.8855 39.7794 17.9605 39.9919 18.523ZM37.4169 23.0355C37.7919 23.3105 37.9294 23.798 37.6669 23.9605C37.4294 24.1105 36.3794 24.098 36.0419 23.9355C35.7044 23.7855 35.3794 23.1605 35.4919 22.873C35.6044 22.573 36.9544 22.6855 37.4169 23.0355ZM39.0669 26.6105C39.0669 27.648 38.0044 28.773 37.2794 28.498C37.0419 28.4105 36.9544 27.9105 37.0919 27.398C37.2669 26.7355 38.0669 26.1105 38.7919 26.0855C39.0294 26.073 39.0669 26.1355 39.0669 26.6105Z" fill="#0C0C0C"/>
<path d="M35.8169 23.0605C35.8169 23.198 37.3044 23.7605 37.4044 23.648C37.5044 23.548 37.5044 23.548 36.6919 23.223C35.9294 22.923 35.8169 22.898 35.8169 23.0605Z" fill="#0C0C0C"/>
<path d="M37.817 27.2605C37.4295 27.6605 37.217 27.948 37.3295 27.948C37.517 27.948 38.692 26.8355 38.692 26.6605C38.692 26.448 38.4545 26.6105 37.817 27.2605Z" fill="#0C0C0C"/>
<path d="M28.6544 21.073C27.9669 21.673 27.8294 22.2105 28.1294 23.1355C28.1794 23.323 28.0544 23.5605 27.6669 24.0355C27.0544 24.773 26.8794 24.8355 26.7669 24.3855C26.6419 23.898 25.9919 23.5605 25.2544 23.598L24.6294 23.6355L24.6419 24.1855C24.6544 24.648 24.7294 24.798 25.0544 25.098C25.2669 25.2855 25.5794 25.448 25.7294 25.448C26.1669 25.448 26.2044 25.5605 25.9294 26.048C25.5669 26.7355 25.6169 27.523 26.0544 28.223C26.4419 28.823 27.5794 29.823 27.8919 29.823C28.1544 29.823 28.1169 29.7855 27.3794 29.248C27.0044 28.9855 26.6919 28.698 26.6919 28.623C26.6919 28.548 26.9044 28.448 27.1669 28.398C28.1044 28.248 28.7044 27.048 28.2919 26.1355C28.2169 25.9605 28.0419 25.823 27.9169 25.823C27.5169 25.823 26.7294 26.298 26.3294 26.7855C25.9794 27.2105 25.9419 27.223 25.9419 26.973C25.9419 26.423 26.2919 25.873 27.3044 24.8355C27.8544 24.248 28.3169 23.7355 28.3169 23.673C28.3169 23.623 28.5419 23.4605 28.8044 23.323C29.5044 22.973 29.8169 22.523 29.8169 21.873C29.8169 20.6855 29.4044 20.398 28.6544 21.073ZM29.4919 21.148C29.5294 21.2605 29.5669 21.5605 29.5669 21.823C29.5669 22.373 29.0669 23.073 28.6794 23.073C28.4669 23.073 28.4794 23.0105 28.8169 22.398C29.1919 21.7355 29.2919 21.323 29.0919 21.323C29.0419 21.323 28.8669 21.598 28.7294 21.948C28.5794 22.2855 28.4044 22.573 28.3294 22.573C27.9669 22.573 28.3669 21.623 28.8919 21.2105C29.2919 20.898 29.3919 20.8855 29.4919 21.148ZM26.0794 23.9605C26.3669 24.1105 26.6919 24.7855 26.6044 25.0355C26.5419 25.198 25.9544 25.248 25.4919 25.123C25.1919 25.048 24.7419 24.173 24.8669 23.9605C24.9794 23.7855 25.7544 23.7855 26.0794 23.9605ZM28.0794 26.3605C28.2669 26.773 28.0169 27.623 27.6044 27.9355C27.3044 28.173 26.6919 28.298 26.6919 28.123C26.6919 28.0855 26.9294 27.773 27.2044 27.423C27.9044 26.598 27.7044 26.473 26.9919 27.298C26.3544 28.023 26.1169 28.123 26.2544 27.598C26.3794 27.098 26.9044 26.473 27.3544 26.273C27.9044 26.023 27.9294 26.0355 28.0794 26.3605Z" fill="#0C0C0C"/>
<path d="M25.1919 24.173C25.1919 24.323 25.7919 24.823 25.9669 24.823C26.1919 24.823 26.0044 24.5605 25.5919 24.3105C25.3794 24.1605 25.1919 24.1105 25.1919 24.173Z" fill="#0C0C0C"/>
<path d="M28.8294 31.573L22.1419 31.6355L22.0294 32.073C21.7544 33.123 22.1419 37.123 22.7544 39.523C23.3419 41.7855 24.6169 43.873 26.2044 45.148C26.9044 45.698 26.9419 45.773 26.9419 46.2855C26.9419 46.923 27.2294 47.273 27.8419 47.3855C30.0294 47.773 32.9544 47.9105 34.3169 47.7105C35.5044 47.523 36.7044 47.1355 37.0419 46.8105C37.2419 46.6355 37.3169 46.4105 37.3169 46.023C37.3169 45.5355 37.3669 45.448 37.8169 45.1355C38.0794 44.948 38.4919 44.573 38.7169 44.2855C39.3419 43.523 39.3919 43.4855 39.9044 43.398C41.9044 43.0355 44.5669 41.8105 45.7294 40.7105C47.9169 38.6355 47.8169 35.3605 45.5544 34.6855C45.1044 34.548 45.0294 34.548 44.9169 34.7355C44.8544 34.848 44.7044 34.948 44.5919 34.948C44.2169 34.9605 43.2669 35.448 42.6544 35.973C42.3169 36.248 42.0169 36.448 41.9794 36.398C41.9419 36.3605 41.9669 36.123 42.0294 35.8605C42.0919 35.598 42.1419 34.548 42.1419 33.5355C42.1294 32.0355 42.0919 31.6605 41.9419 31.5605C41.8294 31.498 40.5169 31.4605 38.6294 31.473C36.9169 31.498 32.5044 31.5355 28.8294 31.573ZM41.7794 34.223C41.6669 37.6355 41.0544 40.298 39.9294 42.1605C38.6294 44.323 36.9919 45.673 35.1294 46.1355C33.3419 46.573 30.2919 46.5605 28.4669 46.1105C26.6919 45.673 24.5669 43.4855 23.5794 41.1105C22.7919 39.2105 22.3169 36.423 22.3169 33.773V32.073L25.2919 32.0355C26.9169 32.023 31.3169 31.998 35.0544 31.973L41.8544 31.948L41.7794 34.223ZM46.2794 35.473C46.7919 35.773 46.9419 36.298 46.8794 37.598C46.8294 38.8355 46.5044 39.523 45.5044 40.5105C44.9669 41.048 44.4169 41.4355 43.6419 41.8105C42.3044 42.4605 41.0044 42.923 40.2169 43.0355L39.6294 43.1105L39.9294 42.773C40.1044 42.598 40.3544 42.4355 40.4919 42.4355C40.7544 42.4105 40.7419 42.4105 40.4919 42.3605C40.2169 42.3105 40.2169 42.3105 40.5794 41.598C40.9044 40.923 41.5794 38.673 41.7419 37.6855C41.8419 37.1105 42.6044 36.223 43.4044 35.748C44.6169 35.0355 45.4544 34.9605 46.2794 35.473ZM37.0669 46.1105C37.0669 46.523 36.7669 46.748 35.8169 47.048C34.1044 47.6105 32.3169 47.698 29.7919 47.3855C27.5419 47.1105 27.1919 46.973 27.1919 46.348C27.1919 46.0855 27.2294 46.0605 27.4794 46.1355C28.6794 46.5105 30.6419 46.823 31.8294 46.823C33.1669 46.8105 35.9169 46.3105 36.5169 45.973C36.8919 45.748 37.0669 45.798 37.0669 46.1105Z" fill="#0C0C0C"/>
<path d="M25.942 34.348C25.942 34.373 25.9295 35.7105 25.917 37.323L25.892 40.2605L26.4795 40.298L27.067 40.3355V39.023V37.698H27.892C28.7045 37.698 28.7045 37.698 28.667 37.3605C28.6295 37.0355 28.617 37.023 27.8545 37.0605C26.917 37.098 26.9045 37.073 27.0545 35.2855C27.067 35.1105 27.2045 35.073 28.0045 35.073H28.942V34.698V34.323H27.442C26.617 34.323 25.942 34.3355 25.942 34.348Z" fill="#0C0C0C"/>
<path d="M30.6169 34.5605C30.1919 34.748 30.0294 34.9355 29.7419 35.523C29.4044 36.198 29.3794 36.3605 29.3919 37.523C29.4169 39.423 29.8919 40.248 31.1044 40.523C32.1669 40.748 33.3169 40.1355 33.3169 39.323C33.3169 38.7855 33.0169 38.7105 32.6294 39.173C32.0669 39.8355 31.1419 39.798 30.8169 39.098C30.6044 38.648 30.5169 37.273 30.6294 36.373C30.6919 35.823 30.7919 35.573 31.0669 35.298C31.4919 34.8855 31.7294 34.8605 32.0794 35.2105C32.2544 35.3855 32.3169 35.5855 32.2919 35.8605C32.2544 36.2355 32.2794 36.2605 32.6669 36.298C33.2169 36.348 33.4419 36.148 33.4419 35.5855C33.4419 35.073 33.1169 34.6355 32.6044 34.4355C32.1169 34.248 31.1669 34.3105 30.6169 34.5605Z" fill="#0C0C0C"/>
<path d="M34.9669 35.348C33.8794 39.1605 33.5919 40.273 33.6794 40.3605C33.7419 40.423 33.9794 40.448 34.2044 40.423C34.6169 40.3855 34.6294 40.3605 34.8044 39.598L34.9919 38.823H35.8169H36.6544L36.8294 39.598C37.0044 40.3855 37.0044 40.3855 37.4919 40.423C37.7544 40.448 38.0294 40.4105 38.0919 40.348C38.1544 40.2855 38.1044 39.9105 37.9544 39.4355C37.6544 38.423 37.0044 35.973 36.8169 35.098L36.6669 34.448H35.9419H35.2294L34.9669 35.348ZM36.1669 36.723C36.3169 37.3605 36.4419 37.9355 36.4419 38.0105C36.4419 38.1355 35.3794 38.173 35.2544 38.048C35.2169 38.0105 35.2919 37.5355 35.4419 36.998C35.5794 36.4605 35.6919 35.923 35.6919 35.798C35.6919 35.2355 35.9169 35.673 36.1669 36.723Z" fill="#0C0C0C"/>
<path d="M46.6044 38.2855C46.5169 38.473 46.4669 38.6355 46.4919 38.673C46.5669 38.748 46.8419 38.198 46.7919 38.073C46.7669 38.0105 46.6794 38.1105 46.6044 38.2855Z" fill="#0C0C0C"/>
<path d="M46.3169 38.9105C46.3169 39.1605 45.4794 40.0855 44.9294 40.4605C44.6294 40.6605 44.4294 40.823 44.4919 40.823C44.5419 40.823 44.8419 40.673 45.1294 40.473C45.6794 40.1355 46.5544 39.0105 46.4044 38.8605C46.3544 38.823 46.3169 38.8355 46.3169 38.9105Z" fill="#0C0C0C"/>
<path d="M43.0044 41.3605C42.3044 41.648 41.5419 41.9605 41.2794 42.0605C41.0294 42.1605 40.8419 42.273 40.8794 42.298C41.0044 42.4355 44.3169 41.073 44.3169 40.8855C44.3169 40.848 44.3044 40.823 44.2919 40.8355C44.2669 40.8355 43.6919 41.073 43.0044 41.3605Z" fill="#0C0C0C"/>
<path d="M44.0044 34.698C43.9669 34.7605 43.9919 34.823 44.0544 34.823C44.1294 34.823 44.1919 34.7605 44.1919 34.698C44.1919 34.623 44.1669 34.573 44.1419 34.573C44.1044 34.573 44.0419 34.623 44.0044 34.698Z" fill="#0C0C0C"/>
<path d="M43.0045 34.948C42.842 35.0105 42.8295 35.0605 42.942 35.0605C43.042 35.0605 43.242 35.0105 43.3795 34.948C43.542 34.8855 43.5545 34.8355 43.442 34.8355C43.342 34.8355 43.142 34.8855 43.0045 34.948Z" fill="#0C0C0C"/>
<path d="M42.442 35.198C42.3295 35.273 42.317 35.323 42.4045 35.323C42.4795 35.323 42.592 35.2605 42.6295 35.198C42.7295 35.048 42.6795 35.048 42.442 35.198Z" fill="#0C0C0C"/>
<path d="M33.3919 17.248C33.2794 17.4355 33.1919 17.648 33.2294 17.7355C33.2544 17.8105 33.3669 17.723 33.4919 17.548C33.6169 17.3605 33.6919 17.1355 33.6669 17.0605C33.6419 16.9855 33.5169 17.0605 33.3919 17.248Z" fill="#0C0C0C"/>
<path d="M48.5669 14.5605C48.5669 14.6355 48.6169 14.7105 48.6919 14.7605C48.9044 14.898 48.6794 15.173 47.5919 16.098C45.8794 17.548 45.7169 17.648 45.4419 17.473C45.3169 17.398 45.1794 17.373 45.1419 17.423C45.0669 17.548 46.5544 18.7605 46.6544 18.6605C46.6919 18.6105 46.6544 18.4855 46.5544 18.373C46.4044 18.198 46.4544 18.1105 46.9419 17.7105C47.2419 17.4605 47.9044 16.9105 48.4169 16.473C49.2919 15.7355 49.3919 15.6855 49.8044 15.7605L50.2544 15.8355L49.5044 15.148C48.7544 14.4605 48.5669 14.348 48.5669 14.5605Z" fill="#0C0C0C"/>
<path d="M16.5669 14.7605C16.4419 14.9105 16.5919 15.2855 17.3669 16.8355C17.8919 17.8855 18.2919 18.8105 18.2544 18.9105C18.0169 19.498 18.0169 19.4855 18.2669 19.348C18.3919 19.273 18.7294 19.0105 19.0044 18.7605L19.5044 18.3105L19.1169 18.3855C18.7794 18.448 18.7169 18.4105 18.4919 18.0105C18.2294 17.498 18.1419 17.648 19.2419 16.773L19.7044 16.4105L20.2044 16.6355C20.6294 16.8355 20.6919 16.9105 20.6294 17.1605C20.5919 17.323 20.5794 17.448 20.6169 17.448C20.7419 17.448 22.1794 16.223 22.1169 16.1605C22.0794 16.1355 21.8919 16.1605 21.6919 16.2355C21.3794 16.348 21.0919 16.2605 19.1669 15.473C17.9669 14.973 16.9294 14.573 16.8544 14.573C16.7794 14.573 16.6544 14.6605 16.5669 14.7605ZM18.3044 15.8355C18.7919 16.0605 19.1919 16.273 19.1919 16.3105C19.1794 16.423 18.2919 17.073 18.1419 17.073C18.0669 17.073 17.8294 16.7105 17.6044 16.2605C17.3794 15.8105 17.2544 15.448 17.3044 15.448C17.3669 15.448 17.8044 15.623 18.3044 15.8355Z" fill="#0C0C0C"/>
<path d="M13.1044 18.223C12.2544 19.123 12.0919 20.0355 12.6419 20.6855C12.8169 20.898 13.3169 21.2355 13.7544 21.448C15.1544 22.1105 16.1294 22.073 16.9294 21.323C17.6544 20.623 17.9169 19.698 17.4044 19.598C17.2794 19.573 17.1919 19.598 17.2044 19.6605C17.3294 20.348 16.7419 21.0605 15.9669 21.1605C14.6794 21.3355 12.6794 20.0355 12.9169 19.173C13.0044 18.823 13.6669 18.448 14.2294 18.448C14.8294 18.448 14.8169 18.3105 14.1919 18.0355C13.5419 17.7605 13.5544 17.7605 13.1044 18.223Z" fill="#0C0C0C"/>
<path d="M50.6919 19.0105C48.6544 19.348 47.8169 19.398 47.5919 19.173C47.2669 18.848 47.3169 19.223 47.6794 19.748C48.1669 20.448 48.3794 20.6105 48.2794 20.173C48.1919 19.823 48.4044 19.698 49.1419 19.698C49.4669 19.698 49.5919 19.798 49.9169 20.3105C50.1419 20.648 50.3169 20.973 50.3169 21.0355C50.3169 21.098 50.1544 21.3105 49.9419 21.5105C49.5794 21.8605 49.5669 21.8605 49.3169 21.6355C48.9169 21.273 49.0169 21.648 49.5419 22.3855C50.0419 23.123 50.2419 23.248 50.1169 22.773C50.0544 22.523 50.2794 22.2355 51.6419 20.823C52.9669 19.4605 53.2169 19.148 53.1044 18.973C52.9294 18.673 52.7294 18.673 50.6919 19.0105ZM51.9419 19.398C51.9419 19.498 50.7919 20.698 50.6919 20.698C50.5169 20.698 49.9169 19.673 50.0294 19.573C50.1669 19.423 51.9419 19.2605 51.9419 19.398Z" fill="#0C0C0C"/>
<path d="M12.2669 42.223C12.1544 42.373 12.0669 42.748 12.0669 43.048C12.0669 43.498 12.0294 43.5855 11.8544 43.548C11.7294 43.523 11.5919 43.323 11.5169 43.098C11.4544 42.8855 11.3294 42.698 11.2419 42.698C10.9919 42.698 11.0294 43.198 11.3169 43.6605C11.5169 43.998 11.6419 44.073 11.9919 44.073C12.5169 44.073 12.5544 44.0105 12.6544 43.198C12.6919 42.8605 12.7669 42.573 12.8044 42.573C12.9669 42.573 13.1919 42.873 13.1919 43.098C13.1919 43.223 13.2794 43.323 13.3794 43.323C13.7544 43.323 13.4794 42.373 13.0169 42.048C12.7669 41.873 12.4544 41.948 12.2669 42.223Z" fill="#0C0C0C"/>
<path d="M52.4794 43.298C52.0669 43.6105 51.7544 44.573 52.0669 44.573C52.1294 44.573 52.2669 44.373 52.3669 44.1355C52.4919 43.8355 52.6419 43.698 52.8044 43.698C53.1169 43.698 53.1169 43.698 52.8544 44.473L52.6294 45.098L52.9294 45.3355C53.0919 45.4605 53.3294 45.573 53.4544 45.573C53.7919 45.573 54.1919 45.0855 54.1919 44.673C54.1919 44.4355 54.2544 44.323 54.3919 44.323C54.8044 44.323 54.4794 43.898 53.7544 43.498C52.8919 43.0105 52.8419 43.0105 52.4794 43.298ZM53.7919 44.4855C53.8169 44.7105 53.7669 44.848 53.6294 44.898C53.3294 45.0105 53.1419 44.773 53.2419 44.3855C53.3544 43.948 53.7419 44.0105 53.7919 44.4855Z" fill="#0C0C0C"/>
<path d="M13.817 44.173C13.817 44.2355 13.9295 44.3855 14.067 44.5105C14.3545 44.773 14.392 45.1355 14.142 45.2355C14.0295 45.2855 13.8295 45.1355 13.6295 44.873C13.242 44.373 12.742 44.298 12.3795 44.698C12.0795 45.023 12.242 45.5605 12.692 45.7855C12.867 45.873 12.992 46.0355 12.967 46.1355C12.9045 46.4855 13.292 46.473 13.842 46.1105C14.1295 45.923 14.4545 45.6855 14.5545 45.598C14.8295 45.3355 14.767 44.7355 14.442 44.3855C14.1545 44.0855 13.817 43.973 13.817 44.173ZM13.492 45.1855C13.617 45.323 13.6795 45.498 13.6295 45.5605C13.5045 45.773 12.967 45.723 12.842 45.473C12.5795 44.973 13.092 44.748 13.492 45.1855Z" fill="#0C0C0C"/>
<path d="M51.2794 45.0355C51.2294 45.073 51.1919 45.273 51.1919 45.473C51.1919 45.7355 51.1294 45.823 50.9419 45.823C50.8044 45.823 50.6919 45.898 50.6919 45.973C50.7044 46.2105 52.3169 47.348 52.5169 47.273C52.7919 47.173 52.7169 46.873 52.3669 46.6355C51.6919 46.198 51.5544 45.9855 51.6419 45.448C51.7044 45.0605 51.6794 44.948 51.5419 44.948C51.4419 44.948 51.3169 44.9855 51.2794 45.0355Z" fill="#0C0C0C"/>
<path d="M14.8419 46.398C13.9294 47.148 13.7169 47.3855 13.8294 47.523C13.9044 47.6105 14.0294 47.673 14.1044 47.6605C14.1669 47.648 14.2669 47.773 14.3044 47.9355C14.3544 48.098 14.5294 48.348 14.7044 48.473C15.0044 48.698 15.0669 48.698 15.4669 48.5355C16.0044 48.3105 16.4419 47.773 16.4419 47.323C16.4419 46.9855 16.1169 46.573 15.8419 46.573C15.5919 46.573 15.6669 46.423 16.0919 46.073C16.4669 45.7605 16.4919 45.448 16.1544 45.448C16.0669 45.448 15.4794 45.8855 14.8419 46.398ZM15.7919 46.973C16.0294 47.2105 15.9669 47.4355 15.6169 47.7605C15.2044 48.1355 14.7419 48.173 14.6294 47.823C14.4419 47.2105 15.3544 46.5355 15.7919 46.973Z" fill="#0C0C0C"/>
<path d="M49.9794 46.898C49.9294 47.023 50.0919 47.2855 50.4419 47.6355C50.8794 48.0855 50.9544 48.2355 50.8919 48.498C50.7669 48.9855 50.3544 48.9105 49.7294 48.298C49.2294 47.8105 49.1794 47.7855 48.9794 47.973C48.7919 48.173 48.8169 48.223 49.3919 48.748C49.7294 49.0605 50.1044 49.348 50.2294 49.3855C50.5419 49.498 51.0669 49.123 51.2294 48.6855C51.3044 48.4855 51.4544 48.3355 51.5544 48.3605C51.9544 48.423 51.7794 48.073 51.0669 47.4105C50.2669 46.6605 50.1044 46.573 49.9794 46.898Z" fill="#0C0C0C"/>
<path d="M16.6794 48.3855C15.8919 48.8105 15.7294 49.6355 16.3044 50.2105C16.7669 50.673 17.2919 50.6855 17.7919 50.2605C18.4669 49.6855 18.4294 48.7605 17.7044 48.3855C17.2544 48.1605 17.1044 48.1605 16.6794 48.3855ZM17.6919 48.9355C17.9419 49.423 17.2544 50.223 16.7544 50.0355C16.1169 49.7855 16.6294 48.748 17.4044 48.7105C17.4919 48.698 17.6169 48.8105 17.6919 48.9355Z" fill="#0C0C0C"/>
<path d="M48.1294 48.7105C48.0794 48.7855 47.8919 48.798 47.6669 48.748C47.3419 48.6855 47.2919 48.698 47.3544 48.8855C47.4044 48.998 47.4419 49.2355 47.4419 49.398C47.4419 49.5605 47.5169 49.698 47.6044 49.698C47.6794 49.698 48.0044 49.948 48.3044 50.2605C48.6044 50.573 48.9544 50.823 49.0669 50.823C49.3794 50.823 49.8919 50.223 49.7294 50.0605C49.6294 49.9605 49.5669 49.9605 49.5169 50.0605C49.3544 50.323 48.9669 50.198 48.5794 49.7605C48.1294 49.248 48.1169 49.2105 48.4044 49.0105C48.5169 48.923 48.5669 48.798 48.5169 48.723C48.4044 48.5355 48.2294 48.5355 48.1294 48.7105Z" fill="#0C0C0C"/>
<path d="M46.0044 49.3105C45.9669 49.3855 45.9669 49.523 46.0169 49.598C46.2169 49.973 47.7419 51.948 47.8294 51.948C47.8669 51.948 47.9794 51.873 48.0544 51.773C48.1669 51.6355 48.0044 51.3605 47.2919 50.448C46.3669 49.2605 46.1544 49.073 46.0044 49.3105Z" fill="#0C0C0C"/>
<path d="M18.392 50.648C17.8295 51.423 17.8045 51.4855 18.0045 51.6855C18.192 51.873 18.2295 51.8605 18.4795 51.5105C19.0295 50.7605 19.1795 50.6605 19.692 50.748C20.042 50.798 20.1795 50.773 20.2295 50.648C20.3295 50.4105 20.217 50.323 19.792 50.323C19.5295 50.323 19.442 50.2605 19.442 50.073C19.442 49.5855 19.0045 49.8355 18.392 50.648Z" fill="#0C0C0C"/>
<path d="M45.5919 50.8105C45.4544 50.8855 45.5044 51.0605 45.8044 51.6355C46.1044 52.198 46.1544 52.398 46.0544 52.598C45.8419 52.998 45.4419 52.823 44.9669 52.1105C44.5419 51.498 44.1919 51.348 44.1919 51.798C44.1919 52.098 44.9544 53.2105 45.2419 53.323C45.6044 53.448 46.1294 53.2355 46.2919 52.8855C46.3919 52.673 46.4919 52.6105 46.6794 52.6605C47.0669 52.7605 47.0044 52.5105 46.4294 51.548C45.8919 50.6605 45.8544 50.6355 45.5919 50.8105Z" fill="#0C0C0C"/>
<path d="M21.6919 51.8855C21.6919 51.9855 21.7919 52.073 21.9169 52.073C22.0419 52.073 22.2044 52.1355 22.2919 52.223C22.4544 52.3855 22.4919 52.823 22.3544 52.823C22.2919 52.8105 22.1169 52.7355 21.9419 52.6355C21.2544 52.248 20.6669 52.4855 20.6669 53.1605C20.6669 53.5605 20.9794 53.823 21.4669 53.823C21.6794 53.823 21.8544 53.9105 21.9419 54.073C22.0169 54.2105 22.1294 54.298 22.2044 54.2605C22.4544 54.098 23.0794 52.6855 23.0044 52.448C22.8294 51.898 21.6919 51.4105 21.6919 51.8855ZM22.1294 53.073C22.2419 53.248 21.9669 53.573 21.7044 53.573C21.3794 53.573 21.1544 53.3605 21.2294 53.148C21.3169 52.923 22.0044 52.873 22.1294 53.073Z" fill="#0C0C0C"/>
<path d="M42.942 52.298C42.1795 52.673 42.1295 53.523 42.817 54.223C43.2045 54.598 43.292 54.6105 44.1045 54.298C44.3045 54.223 44.442 54.073 44.442 53.9355C44.442 53.648 44.4045 53.648 43.942 53.8855C43.5045 54.1105 43.3045 54.048 43.017 53.573C42.742 53.098 42.842 52.7605 43.317 52.5855C43.5795 52.498 43.667 52.398 43.617 52.273C43.517 52.023 43.4795 52.023 42.942 52.298Z" fill="#0C0C0C"/>
<path d="M24.5794 53.973C24.1294 55.2355 24.1169 55.348 24.4419 55.298C24.6419 55.273 24.7794 55.098 24.9544 54.6355C25.2169 53.9355 25.4669 53.698 25.8169 53.7855C26.1169 53.8605 26.1419 54.223 25.8794 54.948C25.6294 55.648 25.6419 55.823 25.9294 55.823C26.1169 55.823 26.2419 55.6355 26.4294 55.1355C26.8919 53.898 26.7169 53.448 25.7419 53.448C25.4419 53.448 25.1919 53.3855 25.1919 53.323C25.1919 53.248 25.1169 53.198 25.0169 53.198C24.9294 53.198 24.7294 53.548 24.5794 53.973Z" fill="#0C0C0C"/>
<path d="M39.1669 53.773C38.9669 53.873 38.8169 54.023 38.8169 54.0855C38.8169 54.173 38.9419 54.198 39.1669 54.148C39.7919 53.9855 39.9919 54.0105 40.0419 54.2105C40.0669 54.348 39.9669 54.448 39.7544 54.498C39.3419 54.598 38.9419 55.0105 38.9419 55.323C38.9419 55.4605 39.0544 55.6855 39.1919 55.823C39.4919 56.123 40.0169 56.048 40.3419 55.6605C40.5044 55.448 40.5794 55.423 40.7294 55.548C40.8669 55.6605 40.9419 55.673 41.0044 55.573C41.1044 55.4105 40.5919 53.798 40.3919 53.673C40.1669 53.523 39.5294 53.573 39.1669 53.773ZM40.3169 55.0105C40.3169 55.323 39.9169 55.648 39.6919 55.5105C39.4919 55.3855 39.5544 54.973 39.7919 54.8355C40.1419 54.623 40.3169 54.6855 40.3169 55.0105Z" fill="#0C0C0C"/>
<path d="M27.5295 54.1605C27.492 54.2855 27.392 54.7105 27.3045 55.1105C27.1545 55.798 27.167 55.848 27.417 56.098C27.592 56.2855 27.842 56.373 28.1795 56.373C28.4545 56.3855 28.717 56.423 28.767 56.473C29.0045 56.723 29.167 56.5105 29.3545 55.7105C29.6295 54.5855 29.6295 54.323 29.3295 54.323C29.1545 54.323 29.0545 54.498 28.892 55.0605C28.642 55.948 28.4545 56.148 28.067 55.948C27.817 55.823 27.8045 55.7355 27.892 55.1605C27.942 54.798 27.992 54.398 27.992 54.2605C28.0045 53.948 27.6045 53.8605 27.5295 54.1605Z" fill="#0C0C0C"/>
<path d="M35.0169 54.473C34.9044 54.698 34.8669 54.898 34.9294 54.9355C34.9919 54.973 35.0794 55.3355 35.1294 55.7355C35.2294 56.5605 35.5169 56.848 36.1044 56.7355C36.5169 56.648 36.5544 56.323 36.1419 56.323C35.7919 56.323 35.6919 56.123 35.6919 55.3855C35.6919 54.9105 35.7294 54.8355 35.9794 54.798C36.3294 54.748 36.2919 54.523 35.9169 54.473C35.7544 54.448 35.5794 54.348 35.5294 54.248C35.3794 53.973 35.2294 54.0355 35.0169 54.473Z" fill="#0C0C0C"/>
<path d="M37.6419 54.2605C37.5169 54.3855 37.3419 54.423 37.1294 54.373C36.7544 54.273 36.7419 54.373 37.0169 55.5855C37.1794 56.2855 37.2544 56.448 37.4544 56.448C37.6794 56.448 37.6919 56.3855 37.6169 55.648C37.5419 54.8855 37.5544 54.8355 37.8669 54.6355C38.2169 54.398 38.3044 54.073 38.0169 54.073C37.9169 54.073 37.7544 54.1605 37.6419 54.2605Z" fill="#0C0C0C"/>
<path d="M30.7294 54.573C30.1794 54.798 29.8794 55.873 30.2419 56.348C30.6294 56.873 31.9419 57.0855 31.9419 56.623C31.9419 56.498 31.7919 56.448 31.4669 56.448C30.9794 56.448 30.6919 56.273 30.6919 55.9855C30.6919 55.873 30.9044 55.823 31.3794 55.823C31.8794 55.823 32.0919 55.773 32.1419 55.6355C32.2794 55.298 32.0669 54.8355 31.6919 54.6355C31.2794 54.423 31.1294 54.4105 30.7294 54.573ZM31.5419 54.973C31.8169 55.248 31.7044 55.448 31.2669 55.448C30.7794 55.448 30.6044 55.273 30.8169 55.0105C31.0044 54.7855 31.3419 54.773 31.5419 54.973Z" fill="#0C0C0C"/>
<path d="M32.9044 54.798C32.5169 55.223 32.7044 55.5855 33.4794 55.923C33.6669 55.998 33.8169 56.148 33.8169 56.2605C33.8169 56.4605 33.7169 56.498 33.1044 56.4605C32.8169 56.448 32.6919 56.498 32.6919 56.623C32.6919 57.173 34.2169 56.9855 34.3669 56.4105C34.4544 56.048 34.2794 55.798 33.7294 55.5105C33.1544 55.2105 33.1544 55.0355 33.7544 54.948C34.3919 54.8605 34.3544 54.648 33.6794 54.598C33.2544 54.573 33.0669 54.623 32.9044 54.798Z" fill="#0C0C0C"/>
</svg>
